<svg xmlns="http://www.w3.org/2000/svg" viewBox="0 0 1146 144" width="1146" height="144">
  <rect x="0" y="33" width="1146" height="78" rx="16" fill="#faf0e6"/>
  <g transform="translate(14 3.75) scale(1.05)">
<g>
  <path d="M8 118 C20 96 34 84 52 78" fill="none" stroke="#19311f" stroke-width="3" stroke-linejoin="round" stroke-linecap="round"/>
  <path d="M30 94 l-14 -4 M36 88 l-12 -9 M42 84 l-8 -12 M24 102 l-14 1 M20 110 l-12 6" fill="none" stroke="#19311f" stroke-width="3" stroke-linejoin="round" stroke-linecap="round"/>
  <path d="M30 94 l4 -14 M36 88 l8 -11 M24 102 l10 -10" fill="none" stroke="#54674c" stroke-width="3" stroke-linecap="round"/>
  <path d="M88 52 C112 52 118 86 102 106 L97 102 C108 86 104 62 86 60 Z" fill="#19311f"/>
  <path d="M62 66 C50 58 42 44 26 24 L33 23 C46 38 56 50 68 58 Z" fill="#19311f"/>
  <path d="M64 30 Q76 10 88 30 Z" fill="#919a6b" stroke="#19311f" stroke-width="3" stroke-linejoin="round" stroke-linecap="round"/>
  <circle cx="76" cy="12" r="5" fill="#19311f"/>
  <path d="M65 30 L87 30 L83 56 L69 56 Z" fill="#d2c7a8" stroke="#19311f" stroke-width="3" stroke-linejoin="round" stroke-linecap="round"/>
  <rect x="66" y="54" width="20" height="7" rx="2" fill="#19311f"/>
  <path d="M70 60 C44 66 42 104 54 116 L98 116 C110 104 108 66 82 60 Z" fill="#919a6b" stroke="#19311f" stroke-width="3" stroke-linejoin="round" stroke-linecap="round"/>
  <path d="M52 86 Q76 96 100 86" fill="none" stroke="#ece2d1" stroke-width="4" stroke-linecap="round"/>
  <path d="M58 98 Q76 104 94 98" fill="none" stroke="#304f33" stroke-width="3" stroke-linecap="round"/>
  <rect x="52" y="114" width="48" height="8" rx="4" fill="#19311f"/>
  <ellipse cx="118" cy="118" rx="11" ry="6" fill="#a17f51" stroke="#19311f" stroke-width="2.5" stroke-linejoin="round" stroke-linecap="round" transform="rotate(-20 118 118)"/>
  <ellipse cx="136" cy="114" rx="11" ry="6" fill="#a17f51" stroke="#19311f" stroke-width="2.5" stroke-linejoin="round" stroke-linecap="round" transform="rotate(15 136 114)"/>
  <ellipse cx="128" cy="104" rx="10" ry="5.5" fill="#a17f51" stroke="#19311f" stroke-width="2.5" stroke-linejoin="round" stroke-linecap="round" transform="rotate(-5 128 104)"/>
  <path d="M112 116 q4 -2 8 0 M130 112 q4 -2 8 0" fill="none" stroke="#ece2d1" stroke-width="1.5" stroke-linecap="round"/>
</g></g>
  <g transform="translate(953.5 3.75) scale(1.05)">
<g>
  <path d="M112 84 C126 66 142 54 162 46" fill="none" stroke="#19311f" stroke-width="3" stroke-linejoin="round" stroke-linecap="round"/>
  <ellipse cx="128" cy="68" rx="9" ry="4" fill="#54674c" stroke="#19311f" stroke-width="1.5" stroke-linejoin="round" stroke-linecap="round" transform="rotate(-45 128 68)"/>
  <ellipse cx="146" cy="56" rx="9" ry="4" fill="#54674c" stroke="#19311f" stroke-width="1.5" stroke-linejoin="round" stroke-linecap="round" transform="rotate(-35 146 56)"/>
  <ellipse cx="122" cy="80" rx="9" ry="4" fill="#54674c" stroke="#19311f" stroke-width="1.5" stroke-linejoin="round" stroke-linecap="round" transform="rotate(35 122 80)"/>
  <ellipse cx="140" cy="68" rx="9" ry="4" fill="#54674c" stroke="#19311f" stroke-width="1.5" stroke-linejoin="round" stroke-linecap="round" transform="rotate(30 140 68)"/>
  <ellipse cx="162" cy="48" rx="5" ry="6.5" fill="#19311f"/>
  <ellipse cx="154" cy="62" rx="4.5" ry="6" fill="#919a6b" stroke="#19311f" stroke-width="1.5" stroke-linejoin="round" stroke-linecap="round"/>
  <path d="M2 96 L34 70 L52 104 Z" fill="#d2c7a8" stroke="#19311f" stroke-width="3" stroke-linejoin="round" stroke-linecap="round"/>
  <path d="M18 88 l2 2 M30 82 l2 2 M32 94 l2 2" stroke="#a17f51" stroke-width="3" stroke-linecap="round"/>
  <path d="M40 92 Q84 136 128 92 Z" fill="#304f33" stroke="#19311f" stroke-width="3" stroke-linejoin="round" stroke-linecap="round"/>
  <ellipse cx="84" cy="92" rx="44" ry="11" fill="#d2c7a8" stroke="#19311f" stroke-width="3" stroke-linejoin="round" stroke-linecap="round"/>
  <path d="M60 92 C70 84 98 84 108 92 C98 98 74 98 64 94" fill="none" stroke="#ece2d1" stroke-width="3" stroke-linecap="round"/>
  <ellipse cx="84" cy="91" rx="10" ry="4" fill="#919a6b"/>
  <circle cx="72" cy="90" r="2" fill="#d4854b"/>
  <circle cx="96" cy="94" r="2" fill="#d4854b"/>
  <circle cx="90" cy="87" r="1.8" fill="#d4854b"/>
  <circle cx="78" cy="96" r="1.8" fill="#d4854b"/>
  <circle cx="84" cy="90" r="3" fill="#ece2d1" stroke="#19311f" stroke-width="1.5" stroke-linejoin="round" stroke-linecap="round"/>
  <circle cx="134" cy="112" r="11" fill="#a17f51" stroke="#19311f" stroke-width="3" stroke-linejoin="round" stroke-linecap="round"/>
  <circle cx="154" cy="108" r="10" fill="#a17f51" stroke="#19311f" stroke-width="3" stroke-linejoin="round" stroke-linecap="round"/>
  <circle cx="144" cy="94" r="10" fill="#a17f51" stroke="#19311f" stroke-width="3" stroke-linejoin="round" stroke-linecap="round"/>
  <path d="M130 110 l3 2 M138 114 l2 -2 M150 106 l3 2 M141 92 l3 2" stroke="#19311f" stroke-width="2" stroke-linecap="round"/>
</g></g>
</svg>
